<?xml version="1.0" encoding="utf-8"?>
<!-- Generator: Adobe Illustrator 21.0.0, SVG Export Plug-In . SVG Version: 6.00 Build 0)  -->
<svg version="1.1" id="图层_1" xmlns="http://www.w3.org/2000/svg" xmlns:xlink="http://www.w3.org/1999/xlink" x="0px" y="0px"
	 viewBox="0 0 16.2 14.6" style="enable-background:new 0 0 16.2 14.6;" xml:space="preserve">
<style type="text/css">
	.st0{clip-path:url(#SVGID_2_);}
	.st1{clip-path:url(#SVGID_4_);}
	.st2{clip-path:url(#SVGID_6_);fill:none;stroke:#FFFFFF;stroke-linecap:round;stroke-linejoin:round;stroke-miterlimit:10;}
	.st3{clip-path:url(#SVGID_8_);}
	.st4{clip-path:url(#SVGID_10_);fill:#FFFFFF;}
	.st5{clip-path:url(#SVGID_12_);}
	.st6{clip-path:url(#SVGID_14_);fill:#FFFFFF;}
</style>
<g>
	<defs>
		<rect id="SVGID_1_" x="-1" y="-1" width="18" height="17"/>
	</defs>
	<clipPath id="SVGID_2_">
		<use xlink:href="#SVGID_1_"  style="overflow:visible;"/>
	</clipPath>
	<g class="st0">
		<defs>
			<rect id="SVGID_3_" x="-1" y="-1" width="18" height="17"/>
		</defs>
		<clipPath id="SVGID_4_">
			<use xlink:href="#SVGID_3_"  style="overflow:visible;"/>
		</clipPath>
		<g class="st1">
			<defs>
				<rect id="SVGID_5_" x="-2" y="-2" width="20" height="19"/>
			</defs>
			<clipPath id="SVGID_6_">
				<use xlink:href="#SVGID_5_"  style="overflow:visible;"/>
			</clipPath>
			<path class="st2" d="M2.5,2.6h9.1c1.1,0,2,0.9,2,2v7.5c0,1.1-0.9,2-2,2H2.5c-1.1,0-2-0.9-2-2V4.6C0.5,3.5,1.4,2.6,2.5,2.6z"/>
			<path class="st2" d="M4.9,0.5h7.5c2.5,0,3.3,1.2,3.3,3.3V10"/>
		</g>
		<g class="st1">
			<defs>
				<circle id="SVGID_7_" cx="3.5" cy="5.5" r="1"/>
			</defs>
			<clipPath id="SVGID_8_">
				<use xlink:href="#SVGID_7_"  style="overflow:visible;"/>
			</clipPath>
			<g class="st3">
				<defs>
					<rect id="SVGID_9_" x="-2" y="-2" width="20" height="19"/>
				</defs>
				<clipPath id="SVGID_10_">
					<use xlink:href="#SVGID_9_"  style="overflow:visible;"/>
				</clipPath>
				<rect x="-2.5" y="-0.5" class="st4" width="12" height="12"/>
			</g>
		</g>
		<g class="st1">
			<defs>
				<path id="SVGID_11_" d="M0.7,12.7c0,0,1.2-3.4,2.5-3.4c1.3,0,1.6,1.7,2.5,1.7C6.6,11,8,7,10,7c2,0,3.2,4.4,3.2,4.4s0,0.4,0,1.4
					s-0.5,1.2-3,1.2c-2.5,0-7.5,0-8,0c-0.5,0-1.1-0.2-1.3-0.7C0.6,12.8,0.7,12.7,0.7,12.7z"/>
			</defs>
			<clipPath id="SVGID_12_">
				<use xlink:href="#SVGID_11_"  style="overflow:visible;"/>
			</clipPath>
			<g class="st5">
				<defs>
					<rect id="SVGID_13_" x="-2" y="-2" width="20" height="19"/>
				</defs>
				<clipPath id="SVGID_14_">
					<use xlink:href="#SVGID_13_"  style="overflow:visible;"/>
				</clipPath>
				<rect x="-4.3" y="2" class="st6" width="22.5" height="17"/>
			</g>
		</g>
	</g>
</g>
</svg>
