<?xml version="1.0" encoding="utf-8"?>
<!-- Generator: Adobe Illustrator 21.0.0, SVG Export Plug-In . SVG Version: 6.00 Build 0)  -->
<svg version="1.1" id="图层_1" xmlns="http://www.w3.org/2000/svg" xmlns:xlink="http://www.w3.org/1999/xlink" x="0px" y="0px"
	 viewBox="0 0 29.1 25.7" style="enable-background:new 0 0 29.1 25.7;" xml:space="preserve">
<style type="text/css">
	.st0{opacity:0.72;}
	.st1{fill:#FFFFFF;}
</style>
<title>Group@1x</title>
<desc>Created with Sketch.</desc>
<g id="Symbols" class="st0">
	<g id="Symbols_x2F_bilibili-live_x2F_Video_x5F_Play" transform="translate(-2.000000, -5.000000)">
		<g id="Group">
			<g id="Rectangle">
			</g>
		</g>
	</g>
</g>
<g id="Shape">
	<g>
		<path id="path-3_1_" class="st1" d="M24.7,3.8h-5.5l2.4-2.2c0.4-0.4,0.4-0.9,0-1.3C21.4,0.1,21.2,0,20.9,0c-0.2,0-0.5,0.1-0.7,0.3
			l-3.8,3.5h-3.7L8.9,0.3C8.7,0.1,8.5,0,8.2,0C8,0,7.7,0.1,7.5,0.3c-0.4,0.4-0.4,0.9,0,1.3l2.4,2.2H4.4C2,3.8,0,6,0,8.7v10.6
			c0,2.7,1.9,4.9,4.4,4.9h1.4c0,0.8,0.7,1.5,1.6,1.5S9,25,9,24.2h11.3c0,0.8,0.7,1.5,1.6,1.5s1.6-0.7,1.6-1.5h1.2
			c2.4,0,4.4-2.2,4.4-4.9V8.7C29,6,27.1,3.8,24.7,3.8L24.7,3.8z M20.5,14.9L11.8,20c-0.7,0.4-1.3,0.1-1.3-0.8V9
			c0-0.8,0.6-1.2,1.3-0.8l8.7,5.1C21.2,13.8,21.2,14.4,20.5,14.9z"/>
	</g>
</g>
</svg>
